<?xml version="1.0" encoding="utf-8"?>
<!-- Generator: Adobe Illustrator 25.4.1, SVG Export Plug-In . SVG Version: 6.00 Build 0)  -->
<svg version="1.1" id="Layer_1" xmlns="http://www.w3.org/2000/svg" xmlns:xlink="http://www.w3.org/1999/xlink" x="0px" y="0px"
	 viewBox="0 0 360 360" style="enable-background:new 0 0 360 360;" xml:space="preserve">
<style type="text/css">
	.st0{stroke:#000000;stroke-miterlimit:10;}
	.st1{fill:#FFFFFF;}
</style>
<rect class="st0" width="360" height="360"/>
<g>
	<path class="st1" d="M155.6,316.4L43.6,204.4c-13.5-13.5-13.5-35.3,0-48.9L155.6,43.6c13.5-13.5,35.3-13.5,48.9,0l111.9,111.9
		c13.5,13.5,13.5,35.3,0,48.9L204.4,316.4C190.9,329.9,169.1,329.9,155.6,316.4z"/>
	<path d="M215.8,179.1c-0.3,12,6.9,20.4,17.6,20.8c10.2,0.5,18.9-7.3,19.5-17.5c0-0.3,0-0.7,0-1c0.1-10.9-7.7-18.7-19.2-18.4
		c-5.1,0.2-8.6-1.4-11.8-5c-4.5-4.8-9.1-9.4-13.8-13.9c-5.7-5.2-9.7-10.4-9.4-19.1c0.3-9.7-8.7-16.6-19-16c-4.9,0.3-8-1.3-11.2-4.5
		c-6.6-6.9-13.4-13.6-20.2-20.2c-3.3-3.2-4.2-5.7-0.3-9.2c6.6-6.2,12.8-12.9,19.3-19c7.9-7.5,17.8-7.8,25.6-0.1
		c37.2,37,74.4,74.1,111.4,111.3c8.1,8.1,7.8,17.9-0.3,26.1c-36.7,36.9-73.4,73.6-110.3,110.3c-8.1,8.1-18,8.2-26.1,0.2
		C130.3,267,93.4,230,56.5,193c-8.4-8.4-8.1-18.2,0.2-26.7c23.9-24.1,48-48,71.8-72.1c3.8-3.8,6.3-3.7,9.8,0.1
		c4.9,5.4,10.1,10.5,15.4,15.4s10.4,9.5,8.5,18.4c-1.1,5.1,2.1,10.5,6.7,13.6c4.4,3,5.1,6.8,5.1,11.7c-0.2,18.9-0.2,37.7,0,56.5
		c0,4.3-0.9,7.4-4.6,10.3c-9.1,7.1-10,19.2-2.5,27.2c7,7.5,18.8,8.1,26.4,1.3c7.5-6.9,8.1-18.8,1.1-26.3c-0.3-0.3-0.7-0.8-1.1-1.1
		c-3.4-3-5.3-7.4-5.1-11.8c0.2-18.1,0-36.2,0.1-54.3c0-2.4-1-5.7,1.7-6.8c2.7-0.9,4.1,2.2,5.8,3.9c5.1,4.9,9.9,10,15,14.8
		C214.5,170.7,217.5,174.2,215.8,179.1z"/>
</g>
</svg>
