<?xml version="1.0" encoding="utf-8"?>
<!-- Generator: Adobe Illustrator 23.0.1, SVG Export Plug-In . SVG Version: 6.00 Build 0)  -->
<svg version="1.1" id="Layer_1" xmlns="http://www.w3.org/2000/svg" xmlns:xlink="http://www.w3.org/1999/xlink" x="0px" y="0px"
	 viewBox="0 0 24 24" style="enable-background:new 0 0 24 24;" xml:space="preserve">
<style type="text/css">
	.st0{fill:#FFFFFF;}
</style>
<title>LinkedIn</title>
<rect width="24" height="24"/>
<g>
	<path class="st0" d="M8.4,6.7c0,0.9-0.7,1.7-1.7,1.7C5.7,8.4,5,7.6,5,6.7S5.7,5,6.7,5C7.6,5,8.4,5.8,8.4,6.7z"/>
	<path class="st0" d="M19,13.9V19h-2.9v-4.5c0-1.1,0-2.5-1.5-2.5c-1.5,0-1.7,1.2-1.7,2.4V19H10V9.7h2.8v1.3h0
		c0.4-0.7,1.3-1.5,2.7-1.5C18.5,9.4,19,11.3,19,13.9z"/>
	<rect x="5.2" y="9.7" class="st0" width="2.9" height="9.3"/>
</g>
</svg>
