<?xml version="1.0" encoding="utf-8"?>
<!-- Generator: Adobe Illustrator 23.0.1, SVG Export Plug-In . SVG Version: 6.00 Build 0)  -->
<svg version="1.1" id="Layer_1" xmlns="http://www.w3.org/2000/svg" xmlns:xlink="http://www.w3.org/1999/xlink" x="0px" y="0px"
	 viewBox="0 0 512 512" style="enable-background:new 0 0 512 512;" xml:space="preserve">
<style type="text/css">
	.st0{fill:none;stroke:#FFFFFF;stroke-width:24;stroke-miterlimit:10;}
	.st1{fill:none;stroke:#FFFFFF;stroke-width:24;stroke-linecap:round;stroke-linejoin:round;}
</style>
<rect width="514" height="514"/>
<title>Globe</title>
<path class="st0" d="M256,79c-97.8,0-177,79.3-177,177s79.3,177,177,177s177-79.3,177-177S353.8,79,256,79z"/>
<path class="st0" d="M256,79c-49.4,0-95.9,79.3-95.9,177s46.5,177,95.9,177s95.9-79.3,95.9-177S305.4,79,256,79z"/>
<path class="st1" d="M138,138c32.5,23.1,73.5,36.9,118,36.9s85.5-13.8,118-36.9 M374,374c-32.5-23.1-73.5-36.9-118-36.9
	s-85.5,13.8-118,36.9"/>
<path class="st0" d="M256,79v354 M433,256H79"/>
</svg>
